<svg width="912" height="338" viewBox="0 0 912 338" fill="none" xmlns="http://www.w3.org/2000/svg">
<g>
<path d="M861 24.5C861 38.031 871.969 49 885.5 49C899.031 49 910 38.031 910 24.5C910 10.969 899.031 0 885.5 0C871.969 0 861 10.969 861 24.5Z" fill="rgb(113, 204, 220, 0.5)"/>
<path d="M471 234C471 291.438 517.562 338 575 338C632.438 338 679 291.438 679 234C679 176.562 632.438 130 575 130C517.562 130 471 176.562 471 234Z" fill="rgb(113, 204, 220, 0.5)"/>
<path d="M751 212C751 244.033 776.967 270 809 270C841.033 270 867 244.033 867 212C867 179.967 841.033 154 809 154C776.967 154 751 179.967 751 212Z" fill="rgb(113, 204, 220, 0.5)"/>
<path d="M0 93C0 133.869 33.1309 167 74 167C114.869 167 148 133.869 148 93C148 52.1309 114.869 19 74 19C33.1309 19 0 52.1309 0 93Z" fill="rgb(113, 204, 220, 0.5)"/>
<path d="M145 232.5C145 243.822 154.178 253 165.5 253C176.822 253 186 243.822 186 232.5C186 221.178 176.822 212 165.5 212C154.178 212 145 221.178 145 232.5Z" fill="rgb(113, 204, 220, 0.5)"/>
<path d="M679 28.5C679 39.2696 687.73 48 698.5 48C709.27 48 718 39.2696 718 28.5C718 17.7304 709.27 9 698.5 9C687.73 9 679 17.7304 679 28.5Z" fill="rgb(113, 204, 220, 0.5)"/>
<path d="M664.552 168.961L663.015 177.829C662.92 178.373 663.285 178.891 663.829 178.985L672.697 180.523C673.241 180.617 673.759 180.253 673.853 179.709C673.947 179.164 673.583 178.647 673.039 178.552L666.55 177.427L867.576 35.8175L866.424 34.1825L665.398 175.792L666.523 169.303C666.617 168.759 666.253 168.241 665.709 168.147C665.164 168.053 664.647 168.417 664.552 168.961Z" fill="rgb(113, 204, 220, 0.5)"/>
<path d="M716.966 48.2679L708.248 46.0314C707.714 45.8941 707.169 46.2165 707.031 46.7515L704.795 55.4692C704.658 56.0042 704.98 56.5491 705.515 56.6863C706.05 56.8236 706.595 56.5012 706.732 55.9662L708.369 49.587L778.139 167.509L779.861 166.491L710.09 48.5686L716.469 50.2051C717.004 50.3424 717.549 50.0199 717.686 49.485C717.824 48.95 717.501 48.4051 716.966 48.2679Z" fill="rgb(113, 204, 220, 0.5)"/>
<path d="M152.086 66.5079L146.24 73.3504C145.881 73.7703 145.93 74.4015 146.35 74.7603L153.193 80.6067C153.613 80.9654 154.244 80.9159 154.603 80.496C154.962 80.0761 154.912 79.4449 154.492 79.0861L149.485 74.808L682.078 32.9969L681.922 31.0031L149.328 72.8141L153.607 67.8071C153.965 67.3872 153.916 66.756 153.496 66.3972C153.076 66.0385 152.445 66.088 152.086 66.5079Z" fill="rgb(113, 204, 220, 0.5)"/>
<path d="M142.976 214.25L151.808 215.981C152.35 216.088 152.875 215.734 152.981 215.192L154.713 206.361C154.819 205.819 154.466 205.293 153.924 205.187C153.382 205.081 152.857 205.434 152.75 205.976L151.483 212.438L111.83 153.442L110.17 154.558L149.823 213.554L143.361 212.287C142.819 212.181 142.293 212.534 142.187 213.076C142.081 213.618 142.434 214.143 142.976 214.25Z" fill="rgb(113, 204, 220, 0.5)"/>
<path d="M115.066 320.357L117.105 330.249C117.23 330.856 117.792 331.147 118.361 330.9L127.621 326.867C128.189 326.62 128.548 325.927 128.423 325.32C128.298 324.713 127.736 324.421 127.168 324.669L120.391 327.62L160.721 249.85L158.945 248.93L118.616 326.699L117.124 319.46C116.999 318.853 116.437 318.562 115.869 318.809C115.3 319.057 114.941 319.75 115.066 320.357Z" fill="rgb(113, 204, 220, 0.5)"/>
<path d="M745.818 227.032L750.831 219.557C751.138 219.098 751.016 218.477 750.557 218.169L743.082 213.157C742.623 212.849 742.002 212.972 741.695 213.43C741.387 213.889 741.509 214.51 741.968 214.818L747.438 218.486L678.807 232.019L679.193 233.981L747.825 220.448L744.157 225.918C743.849 226.377 743.972 226.998 744.43 227.305C744.889 227.613 745.51 227.491 745.818 227.032Z" fill="rgb(113, 204, 220, 0.5)"/>
<path d="M906.826 163.229L907.642 155.004C907.692 154.499 907.338 153.974 906.852 153.831L898.92 151.503C898.433 151.36 897.998 151.654 897.948 152.159C897.898 152.663 898.252 153.188 898.739 153.331L904.543 155.035L856.465 187.449L857.583 189.107L905.661 156.693L905.063 162.712C905.013 163.217 905.367 163.742 905.854 163.885C906.341 164.027 906.776 163.734 906.826 163.229Z" fill="rgb(113, 204, 220, 0.5)"/>
</g>
</svg>
