<svg width="20" height="17" viewBox="0 0 20 17" fill="none" xmlns="http://www.w3.org/2000/svg">
<path d="M12.3386 3.84113C11.3204 3.84057 10.344 3.43576 9.62417 2.71568L8.56146 1.65553C8.32202 1.41602 7.99745 1.28113 7.65879 1.28038H2.95597C2.62057 1.28032 2.29853 1.41187 2.0591 1.64675C1.81967 1.88163 1.68197 2.20108 1.67559 2.53642L1.73449 3.84113H0.454117L0.395219 2.56075C0.395219 1.8816 0.665012 1.23026 1.14525 0.750027C1.62548 0.269793 2.27682 0 2.95597 0H7.65751C8.33661 0.000145034 8.98784 0.270033 9.46796 0.7503L10.5281 1.81045C11.0082 2.29072 11.6595 2.56061 12.3386 2.56075V3.84113Z" fill="white"/>
<path fill-rule="evenodd" clip-rule="evenodd" d="M17.439 3.84113H2.56102C2.38315 3.84112 2.20724 3.87816 2.04449 3.94991C1.88174 4.02165 1.73572 4.12651 1.61574 4.25781C1.49576 4.38912 1.40446 4.54398 1.34764 4.71252C1.29083 4.88106 1.26975 5.0596 1.28576 5.23674L2.10136 14.1994C2.13011 14.5175 2.27673 14.8134 2.51244 15.029C2.74814 15.2445 3.05592 15.3642 3.37534 15.3645H16.6247C16.9441 15.3642 17.2519 15.2445 17.4876 15.029C17.7233 14.8134 17.8699 14.5175 17.8986 14.1994L18.7142 5.23674C18.7302 5.0596 18.7092 4.88106 18.6524 4.71252C18.5955 4.54398 18.5042 4.38912 18.3843 4.25781C18.2643 4.12651 18.1183 4.02165 17.9555 3.94991C17.7928 3.87816 17.6168 3.84112 17.439 3.84113ZM2.56102 2.56075C2.20517 2.56071 1.85323 2.63484 1.52763 2.7784C1.20203 2.92197 0.909932 3.13181 0.669955 3.39456C0.429979 3.6573 0.247397 3.96718 0.133855 4.30442C0.0203134 4.64166 -0.0216954 4.99887 0.0105084 5.35325L0.826108 14.3159C0.883924 14.9521 1.17747 15.5438 1.64913 15.9747C2.12078 16.4056 2.73648 16.6446 3.37534 16.6449H16.6247C17.2635 16.6446 17.8792 16.4056 18.3509 15.9747C18.8225 15.5438 19.1161 14.9521 19.1739 14.3159L19.9895 5.35325C20.0217 4.99887 19.9797 4.64166 19.8661 4.30442C19.7526 3.96718 19.57 3.6573 19.33 3.39456C19.0901 3.13181 18.798 2.92197 18.4724 2.7784C18.1468 2.63484 17.7948 2.56071 17.439 2.56075H2.56102Z" fill="white"/>
</svg>
