<svg width="20" height="20" viewBox="0 0 20 20" fill="none" xmlns="http://www.w3.org/2000/svg">
<path fill-rule="evenodd" clip-rule="evenodd" d="M0 2.5C0 1.83696 0.263392 1.20107 0.732233 0.732233C1.20107 0.263392 1.83696 0 2.5 0H17.5C18.163 0 18.7989 0.263392 19.2678 0.732233C19.7366 1.20107 20 1.83696 20 2.5V17.5C20 18.163 19.7366 18.7989 19.2678 19.2678C18.7989 19.7366 18.163 20 17.5 20H2.5C1.83696 20 1.20107 19.7366 0.732233 19.2678C0.263392 18.7989 0 18.163 0 17.5V2.5ZM18.75 5H13.75V8.75H18.75V5ZM18.75 10H13.75V13.75H18.75V10ZM18.75 15H13.75V18.75H17.5C17.8315 18.75 18.1495 18.6183 18.3839 18.3839C18.6183 18.1495 18.75 17.8315 18.75 17.5V15ZM12.5 18.75V15H7.5V18.75H12.5ZM6.25 18.75V15H1.25V17.5C1.25 17.8315 1.3817 18.1495 1.61612 18.3839C1.85054 18.6183 2.16848 18.75 2.5 18.75H6.25ZM1.25 13.75H6.25V10H1.25V13.75ZM1.25 8.75H6.25V5H1.25V8.75ZM7.5 5V8.75H12.5V5H7.5ZM12.5 10H7.5V13.75H12.5V10Z" fill="white"/>
</svg>
