<svg width="20" height="20" viewBox="0 0 17 20" fill="none" xmlns="http://www.w3.org/2000/svg">
<path d="M15 0H16.6667V20H15V0Z" fill="white"/>
<path d="M10 1.66667V18.3333H6.66667V1.66667H10ZM10 0H6.66667C6.22464 0 5.80072 0.175595 5.48816 0.488155C5.17559 0.800716 5 1.22464 5 1.66667V18.3333C5 18.7754 5.17559 19.1993 5.48816 19.5118C5.80072 19.8244 6.22464 20 6.66667 20H10C10.442 20 10.866 19.8244 11.1785 19.5118C11.4911 19.1993 11.6667 18.7754 11.6667 18.3333V1.66667C11.6667 1.22464 11.4911 0.800716 11.1785 0.488155C10.866 0.175595 10.442 0 10 0Z" fill="white"/>
<path d="M0 0H1.66667V20H0V0Z" fill="white"/>
</svg>
