<svg width="20" height="21" viewBox="0 0 20 21" fill="none" xmlns="http://www.w3.org/2000/svg">
<path d="M5 4.28571C5.39449 4.28571 5.71428 3.96592 5.71428 3.57143C5.71428 3.17694 5.39449 2.85714 5 2.85714C4.60551 2.85714 4.28571 3.17694 4.28571 3.57143C4.28571 3.96592 4.60551 4.28571 5 4.28571Z" fill="white"/>
<path d="M17.8571 14.3857V11.4286C17.8571 11.0497 17.7066 10.6863 17.4387 10.4184C17.1708 10.1505 16.8074 9.99999 16.4286 9.99999H10.7143V7.14285H17.1429C17.5217 7.14285 17.8851 6.99234 18.153 6.72443C18.4209 6.45652 18.5714 6.09316 18.5714 5.71428V1.42857C18.5714 1.04969 18.4209 0.686327 18.153 0.418419C17.8851 0.15051 17.5217 0 17.1429 0H2.85715C2.47827 0 2.1149 0.15051 1.847 0.418419C1.57909 0.686327 1.42858 1.04969 1.42858 1.42857V5.71428C1.42858 6.09316 1.57909 6.45652 1.847 6.72443C2.1149 6.99234 2.47827 7.14285 2.85715 7.14285H9.28571V9.99999H3.57143C3.19255 9.99999 2.82919 10.1505 2.56128 10.4184C2.29337 10.6863 2.14286 11.0497 2.14286 11.4286V14.3857C1.46954 14.5596 0.882728 14.973 0.492434 15.5486C0.10214 16.1241 -0.0648453 16.8223 0.0227792 17.5121C0.110404 18.202 0.446622 18.8362 0.968412 19.2959C1.4902 19.7556 2.16174 20.0093 2.85715 20.0093C3.55256 20.0093 4.22409 19.7556 4.74588 19.2959C5.26767 18.8362 5.60389 18.202 5.69152 17.5121C5.77914 16.8223 5.61216 16.1241 5.22186 15.5486C4.83157 14.973 4.24476 14.5596 3.57143 14.3857V11.4286H9.28571V14.2857H7.14286V20H12.8571V14.2857H10.7143V11.4286H16.4286V14.3857C15.7552 14.5596 15.1684 14.973 14.7781 15.5486C14.3878 16.1241 14.2209 16.8223 14.3085 17.5121C14.3961 18.202 14.7323 18.8362 15.2541 19.2959C15.7759 19.7556 16.4474 20.0093 17.1429 20.0093C17.8383 20.0093 18.5098 19.7556 19.0316 19.2959C19.5534 18.8362 19.8896 18.202 19.9772 17.5121C20.0648 16.8223 19.8979 16.1241 19.5076 15.5486C19.1173 14.973 18.5305 14.5596 17.8571 14.3857ZM4.28572 17.1428C4.28572 17.4254 4.20193 17.7016 4.04496 17.9365C3.88799 18.1714 3.66488 18.3545 3.40384 18.4627C3.1428 18.5708 2.85556 18.5991 2.57845 18.544C2.30133 18.4888 2.04679 18.3528 1.847 18.153C1.64721 17.9532 1.51115 17.6987 1.45603 17.4215C1.40091 17.1444 1.4292 16.8572 1.53732 16.5962C1.64545 16.3351 1.82855 16.112 2.06348 15.955C2.2984 15.7981 2.5746 15.7143 2.85715 15.7143C3.23603 15.7143 3.59939 15.8648 3.8673 16.1327C4.13521 16.4006 4.28572 16.764 4.28572 17.1428ZM11.4286 15.7143V18.5714H8.57143V15.7143H11.4286ZM2.85715 5.71428V1.42857H17.1429V5.71428H2.85715ZM17.1429 18.5714C16.8603 18.5714 16.5841 18.4876 16.3492 18.3307C16.1143 18.1737 15.9312 17.9506 15.823 17.6895C15.7149 17.4285 15.6866 17.1413 15.7417 16.8641C15.7969 16.587 15.9329 16.3325 16.1327 16.1327C16.3325 15.9329 16.587 15.7968 16.8642 15.7417C17.1413 15.6866 17.4285 15.7149 17.6895 15.823C17.9506 15.9311 18.1737 16.1142 18.3307 16.3492C18.4876 16.5841 18.5714 16.8603 18.5714 17.1428C18.5714 17.5217 18.4209 17.8851 18.153 18.153C17.8851 18.4209 17.5217 18.5714 17.1429 18.5714Z" fill="white"/>
</svg>
