<svg width="20" height="21" viewBox="0 0 20 21" fill="none" xmlns="http://www.w3.org/2000/svg">
<path d="M17.8571 14.3864V11.4286C17.8571 11.0497 17.7066 10.6863 17.4387 10.4184C17.1708 10.1505 16.8074 9.99999 16.4286 9.99999H10.7143V7.14285H12.1429C12.5216 7.14247 12.8848 6.99184 13.1526 6.72402C13.4204 6.45619 13.571 6.09305 13.5714 5.71428V1.42857C13.571 1.04981 13.4204 0.686663 13.1526 0.418836C12.8848 0.151009 12.5216 0.000378197 12.1429 0H7.85714C7.47838 0.000378197 7.11524 0.151009 6.84741 0.418836C6.57958 0.686663 6.42895 1.04981 6.42857 1.42857V5.71428C6.42895 6.09305 6.57958 6.45619 6.84741 6.72402C7.11524 6.99184 7.47838 7.14247 7.85714 7.14285H9.28571V9.99999H3.57143C3.19255 9.99999 2.82919 10.1505 2.56128 10.4184C2.29337 10.6863 2.14286 11.0497 2.14286 11.4286V14.3871C1.46954 14.561 0.882728 14.9744 0.492434 15.55C0.10214 16.1256 -0.0648453 16.8237 0.0227792 17.5136C0.110404 18.2034 0.446622 18.8377 0.968412 19.2974C1.4902 19.7571 2.16174 20.0107 2.85715 20.0107C3.55256 20.0107 4.22409 19.7571 4.74588 19.2974C5.26767 18.8377 5.60389 18.2034 5.69152 17.5136C5.77914 16.8237 5.61216 16.1256 5.22186 15.55C4.83157 14.9744 4.24476 14.561 3.57143 14.3871V11.4286H9.28571V14.3871C8.61239 14.561 8.02558 14.9744 7.63529 15.55C7.24499 16.1256 7.07801 16.8237 7.16563 17.5136C7.25326 18.2034 7.58947 18.8377 8.11126 19.2974C8.63305 19.7571 9.30459 20.0107 10 20.0107C10.6954 20.0107 11.3669 19.7571 11.8887 19.2974C12.4105 18.8377 12.7467 18.2034 12.8344 17.5136C12.922 16.8237 12.755 16.1256 12.3647 15.55C11.9744 14.9744 11.3876 14.561 10.7143 14.3871V11.4286H16.4286V14.3864C15.7552 14.5603 15.1684 14.9737 14.7781 15.5493C14.3878 16.1248 14.2209 16.823 14.3085 17.5128C14.3961 18.2027 14.7323 18.8369 15.2541 19.2966C15.7759 19.7564 16.4474 20.01 17.1429 20.01C17.8383 20.01 18.5098 19.7564 19.0316 19.2966C19.5534 18.8369 19.8896 18.2027 19.9772 17.5128C20.0648 16.823 19.8979 16.1248 19.5076 15.5493C19.1173 14.9737 18.5305 14.5603 17.8571 14.3864ZM7.85714 1.42857H12.1429L12.1436 5.71428H7.85714V1.42857ZM4.28572 17.1428C4.28572 17.4254 4.20193 17.7016 4.04496 17.9365C3.88799 18.1714 3.66488 18.3545 3.40384 18.4627C3.1428 18.5708 2.85556 18.5991 2.57845 18.544C2.30133 18.4888 2.04679 18.3528 1.847 18.153C1.64721 17.9532 1.51115 17.6987 1.45603 17.4215C1.40091 17.1444 1.4292 16.8572 1.53732 16.5962C1.64545 16.3351 1.82855 16.112 2.06348 15.955C2.2984 15.7981 2.5746 15.7143 2.85715 15.7143C3.23591 15.7147 3.59905 15.8653 3.86688 16.1331C4.13471 16.4009 4.28534 16.7641 4.28572 17.1428ZM11.4286 17.1428C11.4286 17.4254 11.3448 17.7016 11.1878 17.9365C11.0308 18.1714 10.8077 18.3545 10.5467 18.4627C10.2857 18.5708 9.99842 18.5991 9.7213 18.544C9.44418 18.4888 9.18964 18.3528 8.98985 18.153C8.79006 17.9532 8.654 17.6987 8.59888 17.4215C8.54376 17.1444 8.57205 16.8572 8.68017 16.5962C8.7883 16.3351 8.9714 16.112 9.20633 15.955C9.44126 15.7981 9.71746 15.7143 10 15.7143C10.3787 15.7148 10.7417 15.8655 11.0095 16.1333C11.2773 16.4011 11.428 16.7641 11.4286 17.1428ZM17.1429 18.5714C16.8603 18.5714 16.5841 18.4876 16.3492 18.3307C16.1143 18.1737 15.9312 17.9506 15.823 17.6895C15.7149 17.4285 15.6866 17.1413 15.7417 16.8641C15.7969 16.587 15.9329 16.3325 16.1327 16.1327C16.3325 15.9329 16.587 15.7968 16.8642 15.7417C17.1413 15.6866 17.4285 15.7149 17.6895 15.823C17.9506 15.9311 18.1737 16.1142 18.3307 16.3492C18.4876 16.5841 18.5714 16.8603 18.5714 17.1428C18.571 17.5216 18.4204 17.8848 18.1526 18.1526C17.8848 18.4204 17.5216 18.571 17.1429 18.5714Z" fill="white"/>
</svg>
