<svg width="20" height="20" viewBox="0 0 18 20" fill="none" xmlns="http://www.w3.org/2000/svg">
<path d="M8.75 5C13.625 5 17.5 3.875 17.5 2.5C17.5 1.125 13.625 0 8.75 0C3.875 0 0 1.125 0 2.5C0 3.875 3.875 5 8.75 5ZM8.75 16.25C3.875 16.25 0 15.125 0 13.75V17.5C0 18.875 3.875 20 8.75 20C13.625 20 17.5 18.875 17.5 17.5V13.75C17.5 15.125 13.625 16.25 8.75 16.25ZM8.75 11.25C3.875 11.25 0 10.125 0 8.75V12.5C0 13.875 3.875 15 8.75 15C13.625 15 17.5 13.875 17.5 12.5V8.75C17.5 10.125 13.625 11.25 8.75 11.25ZM8.75 6.25C3.875 6.25 0 5.125 0 3.75V7.5C0 8.875 3.875 10 8.75 10C13.625 10 17.5 8.875 17.5 7.5V3.75C17.5 5.125 13.625 6.25 8.75 6.25Z" fill="white"/>
</svg>
