<svg width="20" height="20" viewBox="0 0 20 20" fill="none" xmlns="http://www.w3.org/2000/svg">
<path d="M19.2833 2.49988C18.7993 2.03988 18.3938 1.47527 17.8095 1.13949C16.9832 0.805937 16.4361 1.67363 15.9237 2.15543C15.4768 2.6852 14.6156 3.21281 14.9296 4.01945C15.0735 4.53398 16.1286 4.6168 16.1286 4.6168V5.42129L11.3323 5.43652V0.625H10.0177L0 2.3734V17.63L9.96324 19.3741H11.3324L11.3302 17.497C11.7117 17.5341 12.1488 17.7348 12.4966 17.4818C13.038 17.0876 13.4602 16.5552 13.9354 16.0864C14.6628 15.402 15.1233 14.3384 13.2945 14.072V13.2763H17.2274C18.5627 13.215 18.7339 13.3482 18.7514 11.7436L18.7448 4.61895C18.7448 4.61895 19.875 4.47043 19.9853 3.85371C20.0897 3.27023 19.6147 2.87707 19.2833 2.49988ZM4.77887 13.5575L4.78105 6.36094L6.08477 6.29117L6.1 13.7102L4.77887 13.5575ZM13.9703 14.822C13.6629 15.6592 12.8519 16.1781 12.2807 16.8343C11.945 17.218 11.5787 16.7209 11.328 16.5073V6.08621L16.1286 6.07531V7.3834H12.6404V14.822L13.9703 14.822ZM13.2945 8.03746H16.1286V10.6536H13.2945V8.03746ZM18.0908 3.90387L18.082 12.607L13.2945 12.6157V11.3076H16.7827V3.90387C16.327 3.89516 15.8736 3.88207 15.4245 3.85371C15.806 3.04707 16.5559 2.50203 17.1468 1.85453C17.3975 1.53406 17.7572 1.83492 17.9425 2.05949C18.4483 2.64812 19.1241 3.12121 19.4468 3.84934C18.9934 3.88207 18.5399 3.89516 18.0908 3.90387Z" fill="white"/>
</svg>
