<svg width="20" height="20" viewBox="0 0 20 20" fill="none" xmlns="http://www.w3.org/2000/svg">
<path d="M11.3904 0.527344V2.50164H19.3784C19.7217 2.50164 20 2.77992 20 3.12324V16.7121C20 17.0554 19.7217 17.3337 19.3784 17.3337H11.3904V19.4738L0 17.4579V2.53961L11.3904 0.527344ZM7.61066 8.81699C7.64898 8.21004 7.50488 7.59477 7.0966 7.20125C6.61074 6.73285 6.28684 6.65082 4.89781 6.72273L3.76945 6.78117V13.1544H4.91672V10.942C7.03332 11.1226 7.52395 9.90168 7.61066 8.81699ZM6.29207 8.81699C6.23211 9.85262 5.75246 9.80902 4.91668 9.79473V7.86902C5.85602 7.8359 6.26148 7.96457 6.29207 8.81699ZM18.4541 8.81141L16.3013 11.0568L14.0509 8.81141H15.7334V5.86141H11.3904V11.6286L13.1197 9.92684L15.6925 12.5014C15.6925 12.5014 13.1745 14.9573 13.1148 14.9573C13.0551 14.9573 11.3904 13.3696 11.3904 13.3696V16.6781H19.339V3.15719H11.3904V4.79605H16.7987V8.81137L18.4541 8.81141Z" fill="white"/>
</svg>
