<svg width="20" height="20" viewBox="0 0 20 20" fill="none" xmlns="http://www.w3.org/2000/svg">
<path d="M9.33333 6.64583C9.05719 6.64583 8.83333 6.86969 8.83333 7.14583C8.83333 7.42198 9.05719 7.64583 9.33333 7.64583V6.64583ZM16 7.64583C16.2761 7.64583 16.5 7.42198 16.5 7.14583C16.5 6.86969 16.2761 6.64583 16 6.64583V7.64583ZM9.33333 10.3958C9.05719 10.3958 8.83333 10.6197 8.83333 10.8958C8.83333 11.172 9.05719 11.3958 9.33333 11.3958V10.3958ZM16 11.3958C16.2761 11.3958 16.5 11.172 16.5 10.8958C16.5 10.6197 16.2761 10.3958 16 10.3958V11.3958ZM9.33333 14.0938C9.05719 14.0938 8.83333 14.3176 8.83333 14.5938C8.83333 14.8699 9.05719 15.0938 9.33333 15.0938V14.0938ZM16 15.0938C16.2761 15.0938 16.5 14.8699 16.5 14.5938C16.5 14.3176 16.2761 14.0938 16 14.0938V15.0938ZM9.33333 7.64583H16V6.64583H9.33333V7.64583ZM9.33333 11.3958H16V10.3958H9.33333V11.3958ZM9.33333 15.0938H16V14.0938H9.33333V15.0938ZM21.5 11C21.5 5.20302 16.797 0.5 11 0.5V1.5C16.2447 1.5 20.5 5.75531 20.5 11H21.5ZM11 0.5C5.20302 0.5 0.5 5.20302 0.5 11H1.5C1.5 5.75531 5.75531 1.5 11 1.5V0.5ZM0.5 11C0.5 16.797 5.20302 21.5 11 21.5V20.5C5.75531 20.5 1.5 16.2447 1.5 11H0.5ZM11 21.5C16.797 21.5 21.5 16.797 21.5 11H20.5C20.5 16.2447 16.2447 20.5 11 20.5V21.5ZM6.33333 7.14583C6.33333 7.09981 6.37064 7.0625 6.41667 7.0625V8.0625C6.92293 8.0625 7.33333 7.65209 7.33333 7.14583H6.33333ZM6.41667 7.0625C6.46269 7.0625 6.5 7.09981 6.5 7.14583H5.5C5.5 7.65209 5.91041 8.0625 6.41667 8.0625V7.0625ZM6.5 7.14583C6.5 7.19186 6.46269 7.22917 6.41667 7.22917V6.22917C5.91041 6.22917 5.5 6.63957 5.5 7.14583H6.5ZM6.41667 7.22917C6.37064 7.22917 6.33333 7.19186 6.33333 7.14583H7.33333C7.33333 6.63957 6.92293 6.22917 6.41667 6.22917V7.22917ZM6.33333 10.9479C6.33333 10.9019 6.37064 10.8646 6.41667 10.8646V11.8646C6.92293 11.8646 7.33333 11.4542 7.33333 10.9479H6.33333ZM6.41667 10.8646C6.46269 10.8646 6.5 10.9019 6.5 10.9479H5.5C5.5 11.4542 5.91041 11.8646 6.41667 11.8646V10.8646ZM6.5 10.9479C6.5 10.9939 6.46269 11.0313 6.41667 11.0313V10.0313C5.91041 10.0313 5.5 10.4417 5.5 10.9479H6.5ZM6.41667 11.0313C6.37064 11.0313 6.33333 10.9939 6.33333 10.9479H7.33333C7.33333 10.4417 6.92293 10.0313 6.41667 10.0313V11.0313ZM6.33333 14.6458C6.33333 14.5998 6.37064 14.5625 6.41667 14.5625V15.5625C6.92293 15.5625 7.33333 15.1521 7.33333 14.6458H6.33333ZM6.41667 14.5625C6.46269 14.5625 6.5 14.5998 6.5 14.6458H5.5C5.5 15.1521 5.91041 15.5625 6.41667 15.5625V14.5625ZM6.5 14.6458C6.5 14.6919 6.46269 14.7292 6.41667 14.7292V13.7292C5.91041 13.7292 5.5 14.1396 5.5 14.6458H6.5ZM6.41667 14.7292C6.37064 14.7292 6.33333 14.6919 6.33333 14.6458H7.33333C7.33333 14.1396 6.92293 13.7292 6.41667 13.7292V14.7292Z" fill="white"/>
</svg>
