<svg width="20" height="20" viewBox="0 0 20 20" fill="none" xmlns="http://www.w3.org/2000/svg">
<path d="M12.9445 15.6667C14.2302 15.6667 15.2778 14.619 15.2778 13.3333C15.2778 12.0476 14.2302 11 12.9445 11C11.6492 11 10.6111 12.0476 10.6111 13.3333C10.6111 14.619 11.6492 15.6667 12.9445 15.6667ZM17.8968 13.981L19.3064 15.0857C19.4302 15.1905 19.4683 15.3619 19.3825 15.5143L18.0492 17.819C18.0092 17.8878 17.946 17.94 17.8709 17.9662C17.7958 17.9924 17.7138 17.9909 17.6397 17.9619L15.9825 17.2952C15.6397 17.5619 15.2587 17.781 14.8587 17.9524L14.6016 19.7143C14.5825 19.8762 14.4397 20 14.2778 20H11.6111C11.4397 20 11.3064 19.8762 11.2778 19.7143L11.0302 17.9524C10.6206 17.781 10.2492 17.5619 9.90636 17.2952L8.23969 17.9619C8.09683 18.019 7.91588 17.9619 7.83969 17.819L6.50636 15.5143C6.46578 15.4455 6.45116 15.3645 6.46514 15.2859C6.47911 15.2073 6.52076 15.1363 6.58255 15.0857L7.99207 13.981L7.94445 13.3333L7.99207 12.6762L6.58255 11.581C6.52109 11.5302 6.47968 11.4592 6.46573 11.3807C6.45177 11.3022 6.46617 11.2212 6.50636 11.1524L7.83969 8.84762C7.91588 8.69524 8.09683 8.6381 8.23969 8.69524L9.90636 9.37143C10.2492 9.10476 10.6206 8.87619 11.0302 8.71429L11.2778 6.94286C11.3064 6.79048 11.4397 6.66667 11.6111 6.66667H14.2778C14.4397 6.66667 14.5825 6.79048 14.6016 6.94286L14.8587 8.71429C15.2587 8.87619 15.6397 9.10476 15.9825 9.37143L17.6397 8.69524C17.8016 8.6381 17.9635 8.69524 18.0492 8.84762L19.3825 11.1524C19.4683 11.2952 19.4302 11.4762 19.3064 11.581L17.8968 12.6762L17.9445 13.3333L17.8968 13.981ZM4.17302 5.78095C5.0016 5.78095 5.66826 5.11429 5.66826 4.28571C5.66826 3.45714 5.0016 2.78095 4.17302 2.78095C3.77394 2.78095 3.39119 2.93949 3.109 3.22169C2.8268 3.50388 2.66826 3.88663 2.66826 4.28571C2.66826 5.11429 3.34445 5.78095 4.17302 5.78095ZM7.35398 4.70476L8.27779 5.40952C8.34445 5.47619 8.3635 5.59048 8.30636 5.68571L7.44921 7.17143C7.4016 7.26667 7.28731 7.30476 7.19207 7.26667L6.1254 6.8381L5.42064 7.25714L5.23969 8.39048C5.22064 8.49524 5.13493 8.57143 5.03017 8.57143H3.31588C3.2016 8.57143 3.11588 8.49524 3.09683 8.39048L2.94445 7.25714L2.22064 6.8381L1.13493 7.26667C1.04921 7.30476 0.944453 7.26667 0.88731 7.17143L0.0301673 5.68571C-0.0269756 5.59048 0.00159603 5.47619 0.0777865 5.40952L0.982548 4.70476L0.953977 4.28571L0.982548 3.86667L0.0777865 3.1619C0.0386636 3.1288 0.0124482 3.08298 0.00374051 3.03247C-0.00496714 2.98197 0.00438901 2.93001 0.0301673 2.88571L0.88731 1.4C0.944453 1.30476 1.04921 1.26667 1.13493 1.30476L2.21112 1.73333L2.94445 1.31429L3.09683 0.180952C3.11588 0.0761905 3.2016 0 3.31588 0H5.03017C5.13493 0 5.22064 0.0761905 5.23969 0.180952L5.42064 1.31429L6.1254 1.73333L7.19207 1.30476C7.28731 1.26667 7.4016 1.30476 7.44921 1.4L8.30636 2.88571C8.3635 2.98095 8.34445 3.09524 8.27779 3.1619L7.35398 3.86667L7.38255 4.28571L7.35398 4.70476Z" fill="white"/>
</svg>
