<svg width="20" height="20" viewBox="0 0 20 20" fill="none" xmlns="http://www.w3.org/2000/svg">
<path d="M17.4042 8.80859C17.4693 9.21224 17.5019 9.60938 17.5019 10C17.5019 10.3906 17.4693 10.7878 17.4042 11.1914L19.9238 13.6133C19.9889 13.6784 20.0116 13.7793 19.9921 13.916C19.9726 14.0527 19.9172 14.1927 19.8261 14.3359L18.4784 16.4258C18.3873 16.569 18.2766 16.6829 18.1464 16.7676C18.0162 16.8522 17.912 16.888 17.8339 16.875L14.6113 15.918C14.0123 16.3737 13.3743 16.7318 12.6972 16.9922L11.9355 19.6875C11.9094 19.7656 11.8248 19.8372 11.6816 19.9023C11.5383 19.9674 11.3756 20 11.1933 20H8.5175C8.33521 20 8.17571 19.9674 8.03899 19.9023C7.90227 19.8372 7.82089 19.7656 7.79485 19.6875L7.09172 16.9141C6.51881 16.6667 5.9524 16.3281 5.3925 15.8984L2.18938 16.875C2.09823 16.888 1.98756 16.8522 1.85735 16.7676C1.72714 16.6829 1.61646 16.569 1.52532 16.4258L0.177659 14.3359C0.0865134 14.1927 0.0311749 14.0527 0.0116436 13.916C-0.00788762 13.7793 0.0148988 13.6784 0.080003 13.6133L2.59953 11.1914C2.53443 10.7878 2.50188 10.3906 2.50188 10C2.50188 9.60938 2.53443 9.21224 2.59953 8.80859L0.080003 6.38672C0.0148988 6.32161 -0.00788762 6.2207 0.0116436 6.08398C0.0311749 5.94727 0.0865134 5.80729 0.177659 5.66406L1.52532 3.57422C1.61646 3.43099 1.72714 3.31706 1.85735 3.23242C1.98756 3.14779 2.09823 3.11198 2.18938 3.125L5.3925 4.10156C5.97844 3.63281 6.61646 3.26823 7.30657 3.00781L8.06828 0.3125C8.09433 0.234375 8.17896 0.16276 8.32219 0.0976562C8.46542 0.0325521 8.62818 0 8.81047 0H11.4863C11.6685 0 11.8313 0.0325521 11.9745 0.0976562C12.1178 0.16276 12.1959 0.234375 12.2089 0.3125L12.912 3.08594C13.498 3.33333 14.0644 3.67188 14.6113 4.10156L17.8339 3.125C17.9251 3.11198 18.0325 3.14779 18.1562 3.23242C18.2799 3.31706 18.3873 3.43099 18.4784 3.57422L19.8261 5.66406C19.9172 5.80729 19.9726 5.94727 19.9921 6.08398C20.0116 6.2207 19.9889 6.32161 19.9238 6.38672L17.4042 8.80859ZM10.0019 6.25C8.96021 6.25 8.07479 6.61784 7.34563 7.35352C6.61646 8.08919 6.25188 8.97461 6.25188 10.0098C6.25188 11.0449 6.61646 11.9271 7.34563 12.6562C8.07479 13.3854 8.96021 13.75 10.0019 13.75C11.0435 13.75 11.929 13.3854 12.6581 12.6562C13.3873 11.9271 13.7519 11.0449 13.7519 10.0098C13.7519 8.97461 13.3873 8.08919 12.6581 7.35352C11.929 6.61784 11.0435 6.25 10.0019 6.25Z" fill="white"/>
</svg>
