<svg width="802" height="326" viewBox="0 0 802 326" fill="none" xmlns="http://www.w3.org/2000/svg">
<path d="M332 210.303V114.577H394.716V125.197H343.909V156.053H393.712V166.673H343.909V199.683H394.716V210.303H332" fill="#231F20"/>
<path d="M409.776 162.512C409.776 132.661 431.733 113 459.001 113C476.08 113 487.849 120.461 496.173 130.795L486.7 136.823C480.672 129.072 470.483 123.62 459.001 123.62C438.048 123.62 422.117 139.549 422.117 162.512C422.117 185.188 438.048 201.404 459.001 201.404C470.483 201.404 479.955 195.951 484.835 191.072V171.697H451.827V161.077H496.604V195.52C487.705 205.567 474.645 212.168 459.001 212.168C431.733 212.168 409.776 192.219 409.776 162.512" fill="#231F20"/>
<path d="M515.968 210.303V114.577H578.684V125.197H527.879V156.053H577.68V166.673H527.879V199.683H578.684V210.303H515.968Z" fill="#231F20"/>
<path d="M653.876 143.424C653.876 132.516 645.984 125.197 634.647 125.197H609.531V161.795H634.647C645.984 161.795 653.876 154.188 653.876 143.424ZM653.017 210.303L628.763 172.271H609.531V210.303H597.621V114.577H636.081C653.589 114.577 666.22 125.772 666.22 143.424C666.22 160.647 654.307 170.119 641.248 171.267L667.079 210.303H653.017Z" fill="#231F20"/>
<path d="M685.012 210.303V114.577H696.923V210.303H685.012Z" fill="#231F20"/>
<path d="M755.329 126.777L735.095 178.441H775.709L755.329 126.777ZM787.623 210.303L779.155 188.919H731.505L723.037 210.303H709.404L748.011 114.577H762.793L801.253 210.303H787.623Z" fill="#231F20"/>
<path d="M297.923 133.513L238.291 44.6573C236.671 42.2453 233.401 41.6026 230.991 43.2199C228.58 44.8386 227.937 48.1066 229.556 50.5186L287.221 136.444L229.556 222.368C227.937 224.78 228.58 228.048 230.991 229.667C231.891 230.271 232.911 230.56 233.919 230.56C235.612 230.56 237.275 229.743 238.291 228.231L297.923 139.375C299.113 137.603 299.113 135.285 297.923 133.513" fill="#7CD3DC"/>
<path d="M68.2823 43.2199C65.8724 41.6053 62.6027 42.2426 60.9828 44.6573L1.35164 133.513C0.160455 135.285 0.160455 137.603 1.35164 139.375L60.9828 228.231C61.9984 229.743 63.6599 230.56 65.3558 230.56C66.3636 230.56 67.3828 230.271 68.2823 229.667C70.6954 228.048 71.337 224.78 69.7178 222.368L12.0531 136.444L69.7178 50.5186C71.337 48.1066 70.6954 44.8386 68.2823 43.2199" fill="#7CD3DC"/>
<path d="M191.004 146.157C188.609 146.041 186.467 148.088 186.417 150.576C186.277 158.024 184.293 158.612 182.845 159.043C179.352 160.065 157.263 158.535 139.792 156.483C139.787 156.481 139.783 156.481 139.777 156.48C139.747 156.476 139.712 156.473 139.681 156.469C139.104 156.401 138.553 156.279 138.023 156.119C130.091 154.236 122.109 139.889 122.016 139.719C122.012 139.72 122.008 139.72 122.004 139.721C120.358 147.801 122.747 153.796 124.852 157.243C127.02 159.967 129.832 162.508 133.456 164.045C129.353 178.591 130.275 192.873 132.307 203.688C134.028 210.39 138.024 222.204 144.452 224.379C137.453 211.481 140.045 173.577 142.315 165.825C149.756 166.628 166.783 168.329 177.471 168.329C181.001 168.329 183.84 168.143 185.409 167.677C194.149 165.08 195.308 156.769 195.421 150.744C195.469 148.257 193.492 146.204 191.004 146.157" fill="#231F20"/>
<path d="M209.64 94.5694C201.784 90.5107 196.5 83.2027 195.504 75.0174C195.157 72.164 195.404 71.2227 195.853 69.5134C196.881 65.588 198.161 60.7027 194.859 39.8974C193.741 32.8427 191.091 25.948 187.012 19.364C190.499 15.5707 193.265 11.548 195.019 7.06136C195.921 4.74536 194.777 2.13469 192.461 1.22936C190.133 0.324024 187.529 1.46935 186.627 3.78535C182.659 13.94 170.725 22.248 156.905 31.8694C125.903 53.4494 83.4427 83.0054 86.5156 162.196C88.124 203.648 109.797 222.94 127.211 238.441C141.38 251.055 152.575 261.019 152.473 279.139C152.305 310.353 131.625 316.652 130.773 316.897C128.372 317.552 126.959 320.028 127.613 322.427C128.16 324.431 129.973 325.748 131.956 325.748C132.347 325.748 132.747 325.696 133.141 325.588C134.291 325.275 161.275 317.48 161.48 279.188C161.603 256.997 147.807 244.716 133.199 231.715C116.22 216.6 96.9751 199.469 95.5156 161.847C92.6344 87.5814 131.125 60.7894 162.052 39.26C168.721 34.6174 174.981 30.256 180.321 25.7294C183.219 30.7894 185.124 36.0134 185.964 41.3094C188.969 60.248 187.912 64.2827 187.139 67.2294C186.584 69.3494 186.008 71.5427 186.561 76.1027C187.917 87.2494 194.997 97.144 205.507 102.572C206.101 102.88 206.136 103.067 206.157 103.179C206.488 104.984 204 109.269 201.567 111.981C199.899 113.825 200.041 116.673 201.885 118.343C202.748 119.121 203.827 119.505 204.905 119.505C206.133 119.505 207.36 119.005 208.248 118.023C209.605 116.521 216.308 108.676 215.021 101.573C214.635 99.4454 213.388 96.5054 209.64 94.5694" fill="#231F20"/>
<path d="M169.119 81.716C170.537 81.8414 172.075 82.1787 173.728 82.6854C173.92 83.1907 174.039 83.732 174.039 84.3054C174.039 86.8187 172.003 88.8547 169.488 88.8547C166.975 88.8547 164.939 86.8187 164.939 84.3054C164.939 83.3827 165.217 82.5254 165.691 81.808C166.601 81.6294 167.916 81.62 169.119 81.716ZM168.48 95.712C173.939 95.712 178.363 91.288 178.363 85.8294C178.363 84.1974 177.931 82.6814 177.231 81.3254C176.148 78.7867 174.151 76.592 171.549 75.0907C169.705 74.076 167.785 73.4267 165.423 73.2974C162.909 73.1907 160.705 73.8987 158.989 74.644C155.491 76.2134 153.152 78.0814 151.116 79.1054C150.092 79.672 149.155 79.9947 147.792 80.044C147.099 80.1294 146.388 79.9547 145.557 79.8614C144.744 79.7227 143.947 79.424 142.971 79.2347C143.456 81.0307 144.372 82.824 146.081 84.1267C147.709 85.4734 150.189 86.208 152.381 86.0734C154.843 85.94 156.923 85.3 158.723 84.5827C158.669 84.9947 158.596 85.4027 158.596 85.8294C158.596 91.288 163.023 95.712 168.48 95.712" fill="#231F20"/>
<path d="M201.251 122.559C198.347 121.644 195.161 121.939 192.361 122.921C191.708 123.143 190.848 123.523 190.396 123.727C189.932 123.944 189.417 124.164 188.9 124.377L185.681 125.663L179.069 128.207L172.533 130.721L177.812 135.749C178.979 136.86 180.191 137.917 181.449 138.924C182.084 139.42 182.708 139.929 183.376 140.392C184.043 140.876 184.583 141.285 185.707 141.965C187.709 143.173 190.284 143.619 192.443 143.133C194.601 142.621 196.391 141.391 197.353 139.608C195.389 139.305 193.863 138.764 192.751 138.097C191.643 137.376 191.005 136.649 190.444 135.8C190.284 135.461 189.619 134.757 189.063 134.151C188.9 133.967 188.72 133.799 188.552 133.62C188.76 133.513 188.971 133.42 189.179 133.309C190.299 132.728 191.416 132.12 192.532 131.425C193.095 131.083 193.656 130.732 194.243 130.333C194.845 129.933 195.033 129.696 195.481 129.399C197.051 128.279 198.791 127.415 200.739 127.052C201.719 126.867 202.765 126.839 203.889 126.981C205.007 127.144 206.157 127.523 207.399 127.997C206.413 125.584 204.165 123.436 201.251 122.559" fill="#231F20"/>
</svg>
