<svg width="879" height="686" viewBox="0 0 879 686" fill="none" xmlns="http://www.w3.org/2000/svg">
<rect x="644" y="358" width="19.5122" height="20" rx="3" fill="white"/>
<rect x="714" y="102" width="20.5128" height="20" rx="3" fill="#C4C4C4"/>
<rect x="719" y="206" width="20" height="20" rx="3" fill="#C4C4C4"/>
<rect x="760" y="284" width="20" height="20" rx="3" fill="#C4C4C4"/>
<rect x="664" y="612" width="20" height="20" rx="3" fill="#C4C4C4"/>
<rect x="73" y="656" width="20" height="20" rx="3" fill="#C4C4C4"/>
<rect x="684" y="471" width="20" height="20" rx="3" fill="#C4C4C4"/>
<rect x="493" y="562" width="20" height="20" rx="3" fill="#C4C4C4"/>
<rect x="312" y="535" width="20" height="20" rx="3" fill="#C4C4C4"/>
<rect x="361" y="491" width="20" height="20" rx="3" fill="#C4C4C4"/>
<rect x="466" y="517" width="20" height="20" rx="3" fill="#C4C4C4"/>
<rect x="619" y="410" width="20" height="20" rx="3" fill="#C4C4C4"/>
<rect x="136" y="555" width="20" height="20" rx="3" fill="#C4C4C4"/>
<rect x="332" y="584" width="20" height="20" rx="3" fill="#C4C4C4"/>
<rect x="427" y="485" width="20" height="20" rx="3" fill="white"/>
<rect x="673" y="284" width="20.5" height="20" rx="3" fill="white"/>
<rect x="735" y="358" width="19.5122" height="20" rx="3" fill="white"/>
<rect x="689" y="541" width="21.0256" height="20" rx="3" fill="white"/>
<rect x="634" y="656" width="20" height="20" rx="3" fill="white"/>
<rect x="858" y="592" width="20.5128" height="20" rx="3" fill="white"/>
<rect x="504" y="345" width="20" height="20" rx="3" fill="white"/>
<rect x="762" y="141" width="19.0244" height="20" rx="3" fill="#71CCDC"/>
<rect x="156" y="592" width="20" height="20" rx="3" fill="#71CCDC"/>
<rect x="602" y="325" width="20" height="20" rx="3" fill="#71CCDC"/>
<rect x="576" y="528" width="21.0256" height="20" rx="3" fill="#71CCDC"/>
<rect x="380" y="545" width="21.0256" height="20" rx="3" fill="#71CCDC"/>
<rect x="486" y="419" width="21.0256" height="20" rx="3" fill="white"/>
<rect x="840" width="20" height="20" rx="3" fill="white"/>
<rect x="233" y="656" width="19.5" height="20" rx="3" fill="white"/>
<rect y="612" width="20" height="20" rx="3" fill="white"/>
<rect x="309" y="465" width="19.5122" height="20" rx="3" fill="white"/>
<rect x="207" y="517" width="20" height="20" rx="3" fill="white"/>
<rect x="427" y="420" width="20" height="20" rx="3" fill="white"/>
<rect x="427" y="666" width="20.5" height="20" rx="3" fill="white"/>
<rect x="587" y="278" width="20" height="20" rx="3" fill="white"/>
<rect x="649" y="198" width="20" height="20" rx="3" fill="white"/>
<rect x="740" y="452" width="19.5122" height="20" rx="3" fill="white"/>
<rect x="821" y="264" width="19.0244" height="20" rx="3" fill="white"/>
<rect x="623" y="460" width="19.0244" height="20" rx="3" fill="white"/>
<rect x="526" y="488" width="20" height="20" rx="3" fill="white"/>
<rect x="566" y="399" width="19.5" height="20" rx="3" fill="white"/>
<rect x="694" y="345" width="21.0256" height="20" rx="3" fill="#71CCDC"/>
<rect x="724" y="501" width="21.0256" height="20" rx="3" fill="#71CCDC"/>
<rect x="823" y="531" width="21.0256" height="20" rx="3" fill="#71CCDC"/>
<rect x="694" y="400" width="20" height="20" rx="3" fill="#C4C4C4"/>
<rect x="821" y="82" width="20" height="20" rx="3" fill="#C4C4C4"/>
<rect x="820" y="425" width="20" height="20" rx="3" fill="#C4C4C4"/>
<path d="M380.848 555.53C381.141 555.062 380.999 554.445 380.53 554.152L372.9 549.379C372.432 549.087 371.815 549.229 371.522 549.697C371.229 550.165 371.371 550.782 371.839 551.075L378.622 555.318L374.379 562.1C374.087 562.568 374.229 563.185 374.697 563.478C375.165 563.771 375.782 563.629 376.075 563.161L380.848 555.53ZM176.225 602.974L380.224 555.974L379.775 554.026L175.775 601.026L176.225 602.974Z" fill="black"/>
<path d="M602.999 334.955C602.974 334.403 602.507 333.976 601.955 334.001L592.964 334.407C592.412 334.432 591.985 334.899 592.01 335.451C592.035 336.003 592.503 336.43 593.054 336.405L601.046 336.044L601.407 344.036C601.432 344.588 601.899 345.015 602.451 344.99C603.003 344.965 603.43 344.497 603.405 343.946L602.999 334.955ZM401.738 555.675L602.738 335.675L601.262 334.326L400.262 554.325L401.738 555.675Z" fill="black"/>
<path d="M762.991 150.865C762.917 150.318 762.413 149.935 761.865 150.009L752.947 151.22C752.4 151.295 752.017 151.798 752.091 152.346C752.165 152.893 752.669 153.276 753.216 153.202L761.144 152.125L762.22 160.053C762.295 160.6 762.798 160.983 763.346 160.909C763.893 160.835 764.276 160.331 764.202 159.784L762.991 150.865ZM622.796 335.606L762.796 151.606L761.204 150.395L621.204 334.394L622.796 335.606Z" fill="black"/>
<path d="M576.776 537.631C577.124 537.203 577.059 536.573 576.631 536.224L569.649 530.545C569.221 530.196 568.591 530.261 568.243 530.69C567.894 531.118 567.959 531.748 568.387 532.096L574.593 537.145L569.545 543.351C569.196 543.779 569.261 544.409 569.69 544.757C570.118 545.106 570.748 545.041 571.096 544.613L576.776 537.631ZM401.102 555.995L576.102 537.995L575.898 536.005L400.898 554.005L401.102 555.995Z" fill="black"/>
<path d="M724.839 511.545C725.139 511.081 725.008 510.462 724.545 510.161L716.996 505.26C716.533 504.959 715.914 505.091 715.613 505.554C715.312 506.017 715.444 506.636 715.907 506.937L722.617 511.294L718.26 518.004C717.959 518.467 718.091 519.086 718.554 519.387C719.017 519.688 719.636 519.556 719.937 519.093L724.839 511.545ZM597.208 538.978L724.208 511.978L723.792 510.022L596.792 537.022L597.208 538.978Z" fill="black"/>
<path d="M823.406 541.914C823.911 541.69 824.138 541.099 823.914 540.594L820.259 532.37C820.034 531.865 819.443 531.638 818.939 531.862C818.434 532.086 818.207 532.677 818.431 533.182L821.68 540.492L814.37 543.741C813.865 543.966 813.638 544.557 813.862 545.061C814.086 545.566 814.677 545.793 815.182 545.569L823.406 541.914ZM744.641 511.933L822.641 541.933L823.359 540.067L745.359 510.067L744.641 511.933Z" fill="black"/>
<path d="M694.489 355.872C694.971 355.602 695.142 354.993 694.872 354.511L690.472 346.66C690.202 346.178 689.593 346.007 689.111 346.277C688.629 346.547 688.458 347.156 688.728 347.638L692.639 354.617L685.66 358.528C685.178 358.798 685.007 359.407 685.277 359.889C685.547 360.371 686.156 360.542 686.638 360.272L694.489 355.872ZM622.729 335.963L693.729 355.963L694.271 354.037L623.271 334.037L622.729 335.963Z" fill="black"/>
</svg>
