<svg width="38" height="38" viewBox="0 0 38 38" fill="none" xmlns="http://www.w3.org/2000/svg">
  <path stroke="#eee" stroke-width="2" d="M18.9999 22.0002C23.2341 22.0002 26.6666 18.5677 26.6666 14.3335C26.6666 10.0993 23.2341 6.66683 18.9999 6.66683C14.7657 6.66683 11.3333 10.0993 11.3333 14.3335C11.3333 18.5677 14.7657 22.0002 18.9999 22.0002ZM18.9999 22.0002C16.1769 22.0002 13.4233 22.8743 11.1172 24.5026C8.81112 26.1309 7.06585 28.4333 6.12118 31.0935M18.9999 22.0002C21.8229 22.0002 24.5766 22.8743 26.8827 24.5026C29.1888 26.1309 30.934 28.4333 31.8787 31.0935M36.6666 19.0002C36.6666 28.7572 28.757 36.6668 18.9999 36.6668C9.24289 36.6668 1.33325 28.7572 1.33325 19.0002C1.33325 9.24313 9.24289 1.3335 18.9999 1.3335C28.757 1.3335 36.6666 9.24313 36.6666 19.0002Z"/>
</svg>
