<svg width="910" height="338" viewBox="0 0 910 338" fill="none" xmlns="http://www.w3.org/2000/svg">
<circle r="24.5" transform="matrix(-1 0 0 1 885.5 24.5)" fill="#C4C4C4"/>
<circle r="104" transform="matrix(-1 0 0 1 575 234)" fill="#C4C4C4"/>
<circle r="58" transform="matrix(-1 0 0 1 809 212)" fill="#C4C4C4"/>
<circle r="74" transform="matrix(-1 0 0 1 74 93)" fill="#C4C4C4" />
<circle r="20.5" transform="matrix(-1 0 0 1 165.5 232.5)" fill="#C4C4C4"/>
<circle r="19.5" transform="matrix(-1 0 0 1 698.5 28.5)" fill="#C4C4C4"/>
<path d="M663.829 178.985C663.285 178.891 662.92 178.373 663.015 177.829L664.552 168.961C664.647 168.417 665.164 168.053 665.709 168.147C666.253 168.241 666.617 168.759 666.523 169.303L665.156 177.186L673.039 178.552C673.583 178.647 673.947 179.164 673.853 179.709C673.759 180.253 673.241 180.617 672.697 180.523L663.829 178.985ZM867.576 35.8175L664.576 178.818L663.424 177.182L866.424 34.1825L867.576 35.8175Z" fill="#C4C4C4"/>
<path d="M707.031 46.7515C707.169 46.2165 707.714 45.8941 708.248 46.0314L716.966 48.2678C717.501 48.4051 717.824 48.95 717.686 49.485C717.549 50.0199 717.004 50.3423 716.469 50.2051L708.72 48.2171L706.732 55.9662C706.595 56.5012 706.05 56.8236 705.515 56.6863C704.98 56.5491 704.658 56.0042 704.795 55.4692L707.031 46.7515ZM778.139 167.509L707.139 47.5092L708.861 46.4908L779.861 166.491L778.139 167.509Z" fill="#C4C4C4"/>
<path d="M146.35 74.7603C145.931 74.4015 145.881 73.7703 146.24 73.3504L152.086 66.5079C152.445 66.088 153.076 66.0385 153.496 66.3972C153.916 66.756 153.965 67.3872 153.607 67.8071L148.41 73.8893L154.492 79.0861C154.912 79.4449 154.962 80.0761 154.603 80.496C154.244 80.9159 153.613 80.9654 153.193 80.6067L146.35 74.7603ZM682.078 32.9969L147.078 74.9969L146.922 73.0031L681.922 31.0031L682.078 32.9969Z" fill="#C4C4C4"/>
<path d="M152.981 215.192C152.875 215.734 152.35 216.088 151.808 215.981L142.976 214.25C142.434 214.143 142.081 213.618 142.187 213.076C142.293 212.534 142.819 212.181 143.361 212.287L151.211 213.826L152.75 205.976C152.857 205.434 153.382 205.081 153.924 205.187C154.466 205.293 154.819 205.819 154.713 206.361L152.981 215.192ZM111.83 153.442L152.83 214.442L151.17 215.558L110.17 154.558L111.83 153.442Z" fill="#C4C4C4"/>
<path d="M750.557 218.169C751.016 218.477 751.138 219.098 750.831 219.557L745.818 227.032C745.51 227.491 744.889 227.613 744.43 227.305C743.972 226.998 743.849 226.377 744.157 225.918L748.613 219.274L741.968 214.818C741.509 214.51 741.387 213.889 741.695 213.43C742.002 212.972 742.623 212.849 743.082 213.157L750.557 218.169ZM678.807 232.019L749.807 218.019L750.193 219.981L679.193 233.981L678.807 232.019Z" fill="#C4C4C4"/>
</svg>
